<svg xmlns="http://www.w3.org/2000/svg" viewBox="0 0 95.323 102.232"><defs><style>.a{fill:none;stroke-width:5px;}.a,.b{stroke:#fdfdfa;stroke-miterlimit:10;}.b,.d{fill:#fdfdfa;}.b{stroke-width:2px;}.c{fill:#0c557f;}.e{fill:#4db8e2;}</style></defs><path class="a" d="M47.513,9.539A45.124,45.124,0,0,0,2.5,51.9"/><path class="a" d="M86.56,77.172a45.062,45.062,0,0,0-16.5-61.59"/><path class="a" d="M8.464,77.174A45.113,45.113,0,0,0,64.378,96.456"/><polygon class="b" points="79.797 88.887 93.323 81.077 79.797 73.268 79.797 88.887"/><polygon class="b" points="61.039 9.541 47.513 1.732 47.513 17.351 61.039 9.541"/><polygon class="b" points="1.703 65.458 1.703 81.077 15.229 73.268 1.703 65.458"/><rect class="c" x="12.069" y="42.656" width="72" height="12" rx="2"/><path class="d" d="M21.793,45.13a3.45,3.45,0,1,1,0,6.9,3.451,3.451,0,1,1,0-6.9Zm0,1.519A1.933,1.933,0,1,0,23.6,48.578,1.8,1.8,0,0,0,21.793,46.649Z"/><path class="d" d="M25.524,47.079h1.62l1.089,3.058,1.1-3.058h1.628l-1.9,4.827h-1.64Z"/><path class="d" d="M33.673,46.959a2.457,2.457,0,0,1,2.469,2.689v.33H32.7a1.152,1.152,0,0,0,1.229.859,1.914,1.914,0,0,0,1.18-.41l.649.96a3.146,3.146,0,0,1-2.019.64,2.535,2.535,0,1,1-.07-5.068Zm-.989,2.019h1.988a.927.927,0,0,0-1-.829A.952.952,0,0,0,32.684,48.978Z"/><path class="d" d="M36.9,47.079h1.539v.61a2.105,2.105,0,0,1,1.51-.73v1.489a1.256,1.256,0,0,0-.38-.05,1.533,1.533,0,0,0-1.13.45v3.058H36.9Z"/><path class="d" d="M40.974,50.607V48.418h-.8V47.079h.8V45.76H42.5v1.319h.979v1.339H42.5v1.759a.438.438,0,0,0,.43.49.6.6,0,0,0,.39-.12l.3,1.16a1.69,1.69,0,0,1-1.14.32C41.5,52.027,40.974,51.537,40.974,50.607Z"/><path class="d" d="M47.533,49.1c0-.59-.31-.779-.8-.779a1.189,1.189,0,0,0-.93.469v3.118H44.264V45.24H45.8v2.429a2.185,2.185,0,0,1,1.67-.71,1.41,1.41,0,0,1,1.6,1.509v3.438H47.533Z"/><path class="d" d="M50.085,45.59a.88.88,0,1,1,.879.879A.874.874,0,0,1,50.085,45.59Zm.109,1.489h1.539v4.827H50.194Z"/><path class="d" d="M56.123,49.118a.7.7,0,0,0-.79-.8,1.187,1.187,0,0,0-.939.469v3.118H52.855V47.079h1.539v.59a2.181,2.181,0,0,1,1.669-.71,1.424,1.424,0,0,1,1.6,1.529v3.418H56.123Z"/><path class="d" d="M60.783,50.2l-.46.55v1.159H58.784V45.24h1.539v3.768l1.47-1.929h1.858l-1.778,2.2,1.868,2.628h-1.9Z"/><path class="d" d="M64.135,45.59a.88.88,0,1,1,.879.879A.873.873,0,0,1,64.135,45.59Zm.109,1.489h1.539v4.827H64.244Z"/><path class="d" d="M70.173,49.118a.7.7,0,0,0-.79-.8,1.191,1.191,0,0,0-.94.469v3.118H66.9V47.079h1.539v.59a2.182,2.182,0,0,1,1.669-.71,1.424,1.424,0,0,1,1.6,1.529v3.418H70.173Z"/><path class="d" d="M73.374,52.047a1.95,1.95,0,0,0,1.469.559A1.088,1.088,0,0,0,76.072,51.5v-.37a1.821,1.821,0,0,1-1.428.7,2.136,2.136,0,0,1-2.129-2.438,2.134,2.134,0,0,1,2.129-2.429,1.777,1.777,0,0,1,1.428.69v-.57H77.6v4.4c0,1.968-1.56,2.388-2.759,2.388a3.194,3.194,0,0,1-2.139-.719Zm2.7-3.3a1.233,1.233,0,0,0-.919-.429,1.074,1.074,0,0,0,0,2.148,1.23,1.23,0,0,0,.919-.43Z"/><rect class="c" x="12.069" y="56.656" width="36" height="12" rx="2"/><path class="d" d="M18.294,63.578a3.39,3.39,0,0,1,3.559-3.448,3.1,3.1,0,0,1,2.958,1.789l-1.48.7a1.617,1.617,0,0,0-1.478-.969,1.933,1.933,0,0,0,0,3.858,1.615,1.615,0,0,0,1.478-.97l1.48.7a3.119,3.119,0,0,1-2.958,1.79A3.4,3.4,0,0,1,18.294,63.578Z"/><path class="d" d="M25.194,64.487a2.489,2.489,0,0,1,2.629-2.528,2.536,2.536,0,1,1,0,5.068A2.5,2.5,0,0,1,25.194,64.487Zm3.688,0a1.057,1.057,0,1,0-1.059,1.18A1.064,1.064,0,0,0,28.882,64.487Z"/><path class="d" d="M34.523,66.347a1.85,1.85,0,0,1-1.43.68c-1.19,0-2.139-.9-2.139-2.54a2.234,2.234,0,0,1,2.139-2.528,1.794,1.794,0,0,1,1.43.69v-2.41h1.529v6.667H34.523Zm0-2.6a1.26,1.26,0,0,0-.93-.429,1.18,1.18,0,0,0,0,2.348,1.27,1.27,0,0,0,.93-.44Z"/><path class="d" d="M39.433,61.959A2.457,2.457,0,0,1,41.9,64.648v.33H38.463a1.152,1.152,0,0,0,1.229.859,1.912,1.912,0,0,0,1.18-.41l.65.96a3.151,3.151,0,0,1-2.02.64,2.535,2.535,0,1,1-.069-5.068Zm-.99,2.019h1.989a.927.927,0,0,0-1-.829A.953.953,0,0,0,38.443,63.978Z"/><rect class="e" x="50.069" y="56.656" width="33" height="12" rx="2"/><rect class="e" x="20.069" y="28.696" width="40" height="12" rx="2"/><rect class="e" x="63.069" y="28.696" width="9" height="12" rx="2"/><rect class="e" x="27.069" y="71.696" width="43" height="12" rx="2"/></svg>