<svg xmlns="http://www.w3.org/2000/svg" viewBox="0 0 32 32.299"><defs><style>.a{fill:#0c557f;}.b{fill:none;stroke-width:2px;}.b,.c{stroke:#fdfdfa;stroke-miterlimit:10;}.c{fill:#fdfdfa;stroke-width:1.5px;}.d{fill:#252d25;}.e{fill:#4db8e2;}</style></defs><rect class="a" y="0.299" width="32" height="32"/><path class="b" d="M16,3.689A13.815,13.815,0,0,0,2.219,16.657"/><path class="b" d="M27.953,24.393A13.793,13.793,0,0,0,22.9,5.539"/><path class="b" d="M4.046,24.393a13.811,13.811,0,0,0,17.117,5.9"/><polygon class="c" points="25.883 27.979 30.023 25.588 25.883 23.198 25.883 27.979"/><polygon class="c" points="20.141 3.69 16 1.299 16 6.08 20.141 3.69"/><polygon class="c" points="1.977 20.807 1.977 25.588 6.117 23.198 1.977 20.807"/><rect class="d" x="6" y="14.299" width="20" height="3"/><rect class="d" x="6" y="18.299" width="11" height="3"/><rect class="e" x="18" y="18.299" width="8" height="3"/><rect class="e" x="9" y="10.299" width="10" height="3"/><rect class="e" x="9" y="22.299" width="13" height="3"/><rect class="e" x="20" y="10.299" width="3" height="3"/></svg>